<svg width="732" height="754" viewBox="0 0 732 754" fill="none" xmlns="http://www.w3.org/2000/svg">
<path d="M653.5 754C657.317 680.488 634.05 642.247 561 590.5C335.707 473.166 166.005 391.171 83 327C-10.3376 220.905 -35.664 130.119 64.5 0C74.7902 79.237 103.196 112.134 180 157.5L616.5 379.5C703.825 444.833 737.677 502.833 730 604C725.493 650.456 706.915 697.285 653.5 754Z" fill="white"/>
<path d="M524 126C623.393 103.306 668.182 75.1144 730.5 0V257L524 126Z" fill="white"/>
<path d="M206.5 628C107.107 650.694 62.3177 678.886 0 754V497L206.5 628Z" fill="white"/>
</svg>
